<svg width="430" height="441" viewBox="0 0 430 441" fill="none" xmlns="http://www.w3.org/2000/svg">
<circle cx="183.546" cy="183.546" r="163.546" transform="matrix(-1 0 0 1 397.805 35.0002)" stroke="#DAD6D3" stroke-width="40"/>
<circle cx="183.546" cy="183.546" r="163.546" transform="matrix(-1 0 0 1 397.805 35.0002)" stroke="#DAD6D3" stroke-width="40"/>
<path d="M377.825 220.715L377.076 220.679L377.825 220.715ZM365.21 157.596C365.374 157.216 365.815 157.04 366.196 157.204L372.395 159.873C372.776 160.037 372.951 160.478 372.788 160.858C372.624 161.239 372.183 161.415 371.802 161.251L366.291 158.878L363.919 164.389C363.755 164.769 363.314 164.945 362.933 164.781C362.553 164.617 362.377 164.176 362.541 163.796L365.21 157.596ZM362.167 282.19C373.147 260.479 375.919 245.048 377.076 220.679L378.574 220.75C377.41 245.259 374.608 260.913 363.505 282.867L362.167 282.19ZM377.076 220.679C378.245 196.064 374.343 181.132 365.202 158.17L366.596 157.615C375.787 180.704 379.757 195.855 378.574 220.75L377.076 220.679Z" fill="white"/>
<path d="M215.691 52.9911L215.651 53.7401L215.691 52.9911ZM152.504 65.2629C152.125 65.0971 151.952 64.6549 152.117 64.2754L154.82 58.0902C154.986 57.7106 155.428 57.5374 155.808 57.7032C156.188 57.8691 156.361 58.3113 156.195 58.6908L153.792 64.1888L159.29 66.5914C159.67 66.7572 159.843 67.1994 159.677 67.579C159.511 67.9585 159.069 68.1317 158.69 67.9659L152.504 65.2629ZM277.08 68.9838C255.429 57.8852 240.013 55.03 215.651 53.7401L215.73 52.2422C240.233 53.5395 255.871 56.4265 277.765 67.649L277.08 68.9838ZM215.651 53.7401C191.043 52.4371 176.09 56.2583 153.078 65.274L152.531 63.8774C175.67 54.812 190.842 50.9244 215.73 52.2422L215.651 53.7401Z" fill="white"/>
<path d="M221.393 382.404L221.386 381.654L221.393 382.404ZM283.699 366.247C284.088 366.389 284.288 366.82 284.146 367.209L281.831 373.549C281.689 373.938 281.259 374.139 280.869 373.996C280.48 373.854 280.28 373.424 280.422 373.035L282.48 367.399L276.844 365.341C276.455 365.199 276.255 364.768 276.397 364.379C276.539 363.99 276.97 363.79 277.359 363.932L283.699 366.247ZM159.131 370.239C181.428 379.977 196.991 381.873 221.386 381.654L221.4 383.153C196.864 383.374 181.077 381.46 158.531 371.613L159.131 370.239ZM221.386 381.654C246.028 381.432 260.715 376.693 283.126 366.271L283.758 367.631C261.225 378.111 246.322 382.929 221.4 383.153L221.386 381.654Z" fill="white"/>
<path d="M48.3379 226.992L49.0869 226.953L48.3379 226.992ZM67.121 288.557C66.9956 288.952 66.5739 289.17 66.1791 289.045L59.7461 287.001C59.3514 286.875 59.1331 286.453 59.2585 286.059C59.384 285.664 59.8057 285.446 60.2004 285.571L65.9186 287.388L67.7358 281.67C67.8613 281.275 68.283 281.057 68.6777 281.182C69.0725 281.308 69.2908 281.729 69.1654 282.124L67.121 288.557ZM57.8528 164.271C49.0686 186.96 47.8337 202.59 49.0869 226.953L47.5889 227.03C46.3284 202.526 47.5716 186.672 56.454 163.729L57.8528 164.271ZM49.0869 226.953C50.3529 251.563 55.7099 266.037 67.0723 287.985L65.7402 288.675C54.3153 266.606 48.8693 251.92 47.5889 227.03L49.0869 226.953Z" fill="white"/>
</svg>
